<?xml version="1.0" encoding="UTF-8"?>
<svg xmlns="http://www.w3.org/2000/svg" width="256" height="256" viewBox="0 0 256 256">
  <defs>
    <linearGradient id="bg" x1="0" y1="0" x2="0" y2="1">
      <stop offset="0" stop-color="#3b2a1e"/>
      <stop offset="1" stop-color="#1d140d"/>
    </linearGradient>
  </defs>
  <rect width="256" height="256" rx="48" fill="url(#bg)"/>
  <!-- mole body -->
  <ellipse cx="128" cy="150" rx="70" ry="56" fill="#6b4f3a"/>
  <ellipse cx="128" cy="158" rx="46" ry="38" fill="#8a6a4f"/>
  <!-- snout -->
  <ellipse cx="128" cy="124" rx="26" ry="22" fill="#5a4030"/>
  <ellipse cx="128" cy="128" rx="11" ry="8" fill="#d98ca0"/>
  <!-- digging claws -->
  <g fill="#e8d9c5">
    <rect x="70"  y="196" width="8" height="26" rx="4"/>
    <rect x="84"  y="200" width="8" height="26" rx="4"/>
    <rect x="164" y="200" width="8" height="26" rx="4"/>
    <rect x="178" y="196" width="8" height="26" rx="4"/>
  </g>
  <!-- magnifier over a "key" hint -->
  <circle cx="172" cy="92" r="34" fill="none" stroke="#f5c542" stroke-width="10"/>
  <line x1="196" y1="116" x2="222" y2="142" stroke="#f5c542" stroke-width="12" stroke-linecap="round"/>
  <circle cx="164" cy="92" r="8" fill="#f5c542"/>
  <rect x="170" y="88" width="22" height="8" rx="3" fill="#f5c542"/>
</svg>
